<?xml version="1.0" encoding="UTF-8" standalone="no"?>
<!-- Created with Inkscape (http://www.inkscape.org/) -->

<svg
   width="500"
   height="250"
   viewBox="0 0 132.29167 66.145835"
   version="1.1"
   id="svg1"
   xml:space="preserve"
   inkscape:version="1.3 (0e150ed6c4, 2023-07-21)"
   sodipodi:docname="tipos-de-popas.svg"
   inkscape:export-filename="babor-y-estribor.png"
   inkscape:export-xdpi="96"
   inkscape:export-ydpi="96"
   xmlns:inkscape="http://www.inkscape.org/namespaces/inkscape"
   xmlns:sodipodi="http://sodipodi.sourceforge.net/DTD/sodipodi-0.dtd"
   xmlns:xlink="http://www.w3.org/1999/xlink"
   xmlns="http://www.w3.org/2000/svg"
   xmlns:svg="http://www.w3.org/2000/svg"
   xmlns:rdf="http://www.w3.org/1999/02/22-rdf-syntax-ns#"
   xmlns:cc="http://creativecommons.org/ns#"
   xmlns:dc="http://purl.org/dc/elements/1.1/"><title
     id="title2">Tipos de popas</title><sodipodi:namedview
     id="namedview1"
     pagecolor="#ffffff"
     bordercolor="#000000"
     borderopacity="0.25"
     inkscape:showpageshadow="2"
     inkscape:pageopacity="0.0"
     inkscape:pagecheckerboard="0"
     inkscape:deskcolor="#d1d1d1"
     inkscape:document-units="mm"
     inkscape:zoom="1.6333974"
     inkscape:cx="400.69857"
     inkscape:cy="125.50528"
     inkscape:window-width="1368"
     inkscape:window-height="842"
     inkscape:window-x="-6"
     inkscape:window-y="-6"
     inkscape:window-maximized="1"
     inkscape:current-layer="layer1"
     inkscape:export-bgcolor="#ffffffff" /><defs
     id="defs1"><linearGradient
       id="linearGradient34"
       inkscape:collect="always"><stop
         style="stop-color:#636aea;stop-opacity:0.57368422;"
         offset="0"
         id="stop35" /><stop
         style="stop-color:#6c71ec;stop-opacity:0;"
         offset="1"
         id="stop36" /></linearGradient><linearGradient
       id="swatch29"
       inkscape:swatch="solid"><stop
         style="stop-color:#636aea;stop-opacity:1;"
         offset="0"
         id="stop30" /></linearGradient><rect
       x="556.17139"
       y="630.32758"
       width="185.39046"
       height="64.886665"
       id="rect14" /><rect
       x="543.91675"
       y="189.7384"
       width="140.40642"
       height="25.298452"
       id="rect8" /><rect
       x="543.91675"
       y="189.7384"
       width="86.477234"
       height="27.992174"
       id="rect8-4" /><rect
       x="543.91675"
       y="189.7384"
       width="123.0394"
       height="30.685898"
       id="rect8-4-1" /><rect
       x="543.91675"
       y="189.7384"
       width="161.42966"
       height="25.298452"
       id="rect8-8" /><rect
       x="543.91675"
       y="189.7384"
       width="179.71074"
       height="27.094269"
       id="rect8-40" /><rect
       x="543.91675"
       y="189.7384"
       width="86.477234"
       height="27.992174"
       id="rect8-4-2" /><rect
       x="543.91675"
       y="189.7384"
       width="86.477234"
       height="27.992174"
       id="rect8-4-2-3" /><linearGradient
       inkscape:collect="always"
       xlink:href="#linearGradient34"
       id="linearGradient36"
       x1="8.5122881"
       y1="156.99731"
       x2="140.80396"
       y2="156.99731"
       gradientUnits="userSpaceOnUse"
       gradientTransform="matrix(0.30506939,0,0,3.3337012,133.88389,-598.04023)" /></defs><g
     inkscape:label="Capa 1"
     inkscape:groupmode="layer"
     id="layer1"
     transform="translate(-8.5122881,-110.69303)"><rect
       style="fill:#ffffff;stroke-width:0.354437"
       id="rect2"
       width="132.29167"
       height="66.145859"
       x="8.5122881"
       y="110.69303" /><text
       xml:space="preserve"
       style="font-size:4.93889px;font-family:Dubai;-inkscape-font-specification:Dubai;letter-spacing:0.47625px;fill:#636aea;fill-opacity:1;fill-rule:nonzero;stroke:none;stroke-width:0.243;stroke-dasharray:none;stroke-dashoffset:0;stroke-opacity:1"
       x="29.423719"
       y="121.86047"
       id="text38"><tspan
         sodipodi:role="line"
         id="tspan38"
         style="font-size:4.93889px;fill:#636aea;fill-opacity:1;stroke-width:0.243"
         x="29.423719"
         y="121.86047">(a)</tspan></text><text
       xml:space="preserve"
       style="font-size:4.23333px;font-family:Dubai;-inkscape-font-specification:Dubai;text-align:center;letter-spacing:0px;writing-mode:lr-tb;text-anchor:middle;fill:#636aea;fill-opacity:0.418919;fill-rule:nonzero;stroke:none;stroke-width:0.243;stroke-dasharray:none;stroke-dashoffset:0;stroke-opacity:1"
       x="120.40791"
       y="168.9873"
       id="text38-6-7-2"><tspan
         sodipodi:role="line"
         style="font-size:4.23333px;text-align:center;letter-spacing:0px;writing-mode:lr-tb;text-anchor:middle;fill:#0e1369;fill-opacity:1;stroke-width:0.243"
         x="120.40791"
         y="168.9873"
         id="tspan39-5"
         dy="0 0 0 0 0 0 0 0">Popa de remolcador</tspan></text><text
       xml:space="preserve"
       style="font-size:4.93889px;font-family:Dubai;-inkscape-font-specification:Dubai;letter-spacing:0.47625px;fill:#636aea;fill-opacity:1;fill-rule:nonzero;stroke:none;stroke-width:0.243;stroke-dasharray:none;stroke-dashoffset:0;stroke-opacity:1"
       x="71.139511"
       y="121.86047"
       id="text38-7"><tspan
         sodipodi:role="line"
         id="tspan38-5"
         style="font-size:4.93889px;fill:#636aea;fill-opacity:1;stroke-width:0.243"
         x="71.139511"
         y="121.86047">(b)</tspan></text><text
       xml:space="preserve"
       style="font-size:4.93889px;font-family:Dubai;-inkscape-font-specification:Dubai;letter-spacing:0.47625px;fill:#636aea;fill-opacity:1;fill-rule:nonzero;stroke:none;stroke-width:0.243;stroke-dasharray:none;stroke-dashoffset:0;stroke-opacity:1"
       x="117.23608"
       y="121.86047"
       id="text38-7-7"><tspan
         sodipodi:role="line"
         id="tspan38-5-2"
         style="font-size:4.93889px;fill:#636aea;fill-opacity:1;stroke-width:0.243"
         x="117.23608"
         y="121.86047">(c)</tspan></text><rect
       style="fill:url(#linearGradient36);fill-opacity:1;fill-rule:nonzero;stroke:none;stroke-width:0.245057;stroke-dasharray:none;stroke-dashoffset:0;stroke-opacity:1"
       id="rect15"
       width="40.358135"
       height="132.29167"
       x="136.48073"
       y="-140.80396"
       transform="rotate(90)" /><g
       id="g11"
       transform="matrix(1.4186639,0,0,1.4186639,68.625846,-34.828845)"><path
         style="fill:#bfbfbf;fill-opacity:1;stroke:#000000;stroke-width:0.27;stroke-dasharray:none;stroke-opacity:1"
         d="m 46.189248,114.99858 -19.937668,0.11357 -2.979642,5.34583 c -0.08764,4.11892 10.604021,3.68073 10.38493,9.85911 l 0.131455,5.25819 c 0.251691,0.55732 0.968073,0.53795 2.294408,0.5608 1.90639,0.0328 5.072904,-0.0608 9.930889,-0.035"
         id="path1"
         sodipodi:nodetypes="cccccsc" /><path
         style="fill:#ed0000;fill-opacity:1;stroke:#000000;stroke-width:0.27;stroke-dasharray:none;stroke-opacity:1"
         d="m 46.188894,120.50178 -22.916956,-0.0438 c -0.08764,4.11892 10.604021,3.68073 10.38493,9.85911 l 0.131455,5.25819 c 0.251691,0.55732 0.968073,0.53795 2.294408,0.5608 1.90639,0.0328 5.072904,-0.0608 9.930889,-0.035 m -5.071886,-10.56849"
         id="path1-3"
         sodipodi:nodetypes="ccccsc" /><path
         style="fill:#3d3d3d;fill-opacity:1;stroke:#000000;stroke-width:0.27;stroke-dasharray:none;stroke-opacity:1"
         d="m 46.189248,124.24776 -19.122887,-0.2688 c 3.092977,1.42244 6.727615,2.47167 6.590507,6.33813 l 0.131455,5.25819 c 0.251691,0.55732 0.968073,0.53795 2.294408,0.5608 1.90639,0.0328 5.072904,-0.0608 9.930889,-0.035"
         id="path1-3-2"
         sodipodi:nodetypes="ccccsc" /><path
         style="fill:#02ff39;fill-opacity:0.247748;stroke:#000000;stroke-width:0.370417;stroke-opacity:1"
         d="m 23.271938,120.45798 22.916956,0.0438"
         id="path2" /><path
         id="path3"
         style="fill:#828282;fill-opacity:1;stroke:#000000;stroke-width:0.27;stroke-dasharray:none;stroke-opacity:1"
         d="m 27.066354,123.97889 0.107047,12.10502 -1.124752,0.0171 -0.85515,0.67389 8.419742,-0.11406 0.175183,-1.08572 c -0.134138,-3.93639 0.364999,-6.27678 -1.128097,-8.215 l 0.03566,3.44113 c 0,0 -0.404844,0.0733 -0.640439,0.0887 -0.133252,-0.12916 -0.267961,-0.15608 -0.461471,-0.15367 -0.281932,0.004 -0.425752,0.15597 -0.422499,0.40928 0.0031,0.25325 0.17075,0.38785 0.45264,0.38644 0.195149,-0.008 0.347643,-0.0419 0.432824,-0.14677 0.286564,-0.0499 0.645663,0.0372 0.645663,0.0372 l 0.02946,2.81998 c 0.01381,1.3661 -1.000522,1.3285 -2.120284,1.31 -1.20297,-0.0198 -2.519012,-0.1324 -2.548682,-1.91151 l 0.03514,-9.20926 c 1.083931,0.45939 2.102075,0.93728 2.935221,1.46761 -0.962655,-0.64094 -2.214004,-1.24905 -3.967199,-1.92029 z"
         sodipodi:nodetypes="ccccccccccccccccccccc" /><path
         style="fill:#626262;fill-opacity:1;stroke:#000000;stroke-width:0.27;stroke-dasharray:none;stroke-opacity:1"
         d="m 27.070903,124.56008 c -1.015845,0.96629 -4.100471,5.36069 -3.246818,9.25247 0.15448,1.21454 1.854109,2.32474 3.336892,1.8328 z"
         id="path4"
         sodipodi:nodetypes="cccc" /><path
         style="fill:#a0892c;fill-opacity:1;stroke:#000000;stroke-width:0.17;stroke-dasharray:none;stroke-opacity:1"
         d="m 31.624218,131.53196 c 0.03589,0.24449 -0.153924,-0.0324 -0.131355,0.14982 0.252737,2.04064 -0.517342,1.76155 -0.51504,2.81062 0.05592,0.57374 0.457294,0.71477 0.888547,0.18146 0.536722,-1.0007 0.06542,-2.07748 -0.242152,-3.1419 z"
         id="path6"
         sodipodi:nodetypes="csccc" /><path
         style="fill:#a0892c;fill-opacity:1;stroke:#000000;stroke-width:0.17;stroke-dasharray:none;stroke-opacity:1"
         d="m 31.462722,130.88606 c -0.03589,-0.24449 0.153924,0.0324 0.131355,-0.14982 -0.252737,-2.04064 0.517342,-1.76155 0.51504,-2.81062 -0.05592,-0.57374 -0.457294,-0.71477 -0.888547,-0.18146 -0.536722,1.0007 -0.06542,2.07748 0.242152,3.1419 z"
         id="path7"
         sodipodi:nodetypes="csccc" /></g><path
       style="fill:#a0892c;fill-opacity:1;stroke:#000000;stroke-width:0.241149;stroke-dasharray:none;stroke-opacity:1"
       d="m 70.958212,153.65356 c 0.05091,0.34681 -0.218345,-0.046 -0.18633,0.21252 0.358513,2.8947 -0.733863,2.4988 -0.730597,3.98694 0.07932,0.81386 0.648683,1.01391 1.260426,0.2574 0.761353,-1.41952 0.0928,-2.94696 -0.343499,-4.45686 z"
       id="path6-1"
       sodipodi:nodetypes="csccc" /><path
       style="fill:#a0892c;fill-opacity:1;stroke:#000000;stroke-width:0.241149;stroke-dasharray:none;stroke-opacity:1"
       d="m 70.729126,152.73733 c -0.05091,-0.34681 0.218345,0.046 0.18633,-0.21252 -0.358513,-2.8947 0.733863,-2.4988 0.730597,-3.98693 -0.07932,-0.81387 -0.648683,-1.01392 -1.260426,-0.25741 -0.761353,1.41952 -0.0928,2.94696 0.343499,4.45686 z"
       id="path7-6"
       sodipodi:nodetypes="csccc" /><path
       style="fill:#bfbfbf;fill-opacity:1;stroke:#000000;stroke-width:0.383002;stroke-dasharray:none;stroke-opacity:1"
       d="m 92.478944,128.78463 -34.031385,0.33801 -0.02528,11.20968 c -0.03247,0.7468 3.98977,1.56585 8.275687,2.98859 1.923466,0.63851 4.439026,1.22202 5.893743,2.2808 1.710934,1.24526 1.582263,2.09836 1.558125,4.98944 -0.232783,0.69204 -0.350725,1.1386 -0.766386,1.48182 -1.051683,0.86836 -2.781428,0.68409 -3.936034,0.65706 -0.593039,0.26414 -0.546963,0.86314 0.177468,0.93634 2.486563,-0.0617 4.391314,-0.27935 4.92367,1.98298 l 0.124716,2.54498 c 0.35703,0.79057 1.5879,0.54196 3.469339,0.57437 2.704261,0.0465 7.19604,-0.0862 14.087212,-0.0496"
       id="path1-9"
       sodipodi:nodetypes="cccsscsccccsc" /><path
       style="fill:#ed0000;fill-opacity:1;stroke:#000000;stroke-width:0.383002;stroke-dasharray:none;stroke-opacity:1"
       d="m 92.480846,136.2662 -34.05032,0.40986 -0.0082,3.65626 c -0.03247,0.7468 3.98977,1.56585 8.275687,2.98859 1.923466,0.63851 4.439026,1.22202 5.893743,2.2808 1.710934,1.24526 1.582263,2.09836 1.558125,4.98944 -0.232783,0.69204 -0.350725,1.1386 -0.766386,1.48182 -1.051683,0.86836 -2.781428,0.68409 -3.936034,0.65706 -0.593039,0.26414 -0.546963,0.86314 0.177468,0.93634 2.486563,-0.0617 4.391314,-0.27935 4.92367,1.98298 l 0.124716,2.54498 c 0.35703,0.79057 1.5879,0.54196 3.469339,0.57437 2.704261,0.0465 7.19604,-0.0862 14.087212,-0.0496"
       id="path1-9-9"
       sodipodi:nodetypes="cccsscsccccsc" /><path
       style="fill:#3d3d3d;fill-opacity:1;stroke:#000000;stroke-width:0.383002;stroke-dasharray:none;stroke-opacity:1"
       d="m 92.483151,140.78576 -33.266035,0.18165 c 1.376931,0.60113 4.358948,1.31715 7.480869,2.3535 1.923466,0.63851 4.439026,1.22202 5.893743,2.2808 1.710934,1.24526 1.582263,2.09836 1.558125,4.98944 -0.232783,0.69204 -0.350725,1.1386 -0.766386,1.48182 -1.051683,0.86836 -2.781428,0.68409 -3.936034,0.65706 -0.593039,0.26414 -0.546963,0.86314 0.177468,0.93634 2.486563,-0.0617 4.391314,-0.27935 4.92367,1.98298 l 0.124716,2.54498 c 0.35703,0.79057 1.5879,0.54196 3.469339,0.57437 2.704261,0.0465 7.19604,-0.0862 14.087212,-0.0496"
       id="path1-9-9-8"
       sodipodi:nodetypes="ccsscsccccsc" /><path
       style="fill:#626262;fill-opacity:1;stroke:#000000;stroke-width:0.383;stroke-dasharray:none;stroke-opacity:1"
       d="m 59.408077,141.04745 0.290636,16.54881 c 0.01192,0.67949 0.210992,0.90457 0.497931,0.9162 l 5.157284,-0.0887 c 0.532505,0.0386 0.528465,-0.4593 0.654135,-0.82752 l 2.937787,-13.57695 z"
       id="path8"
       sodipodi:nodetypes="ccccccc" /><path
       style="fill:#999999;fill-opacity:0.211712;stroke:#4b4b4b;stroke-width:0.345293;stroke-dasharray:0.345293, 0.345293;stroke-dashoffset:0;stroke-opacity:1"
       d="m 64.176961,142.53339 0.216439,4.58671 -1.25607,0.54676 0.339877,2.07804 h 2.467813 l 1.166804,-6.28997"
       id="path9"
       sodipodi:nodetypes="cccccc" /><text
       xml:space="preserve"
       style="font-size:4.23333px;font-family:Dubai;-inkscape-font-specification:Dubai;text-align:center;letter-spacing:0px;writing-mode:lr-tb;text-anchor:middle;fill:#636aea;fill-opacity:0.418919;fill-rule:nonzero;stroke:none;stroke-width:0.243;stroke-dasharray:none;stroke-dashoffset:0;stroke-opacity:1"
       x="75.71286"
       y="167.05074"
       id="text38-6-7"><tspan
         sodipodi:role="line"
         id="tspan38-0-4"
         style="font-size:4.23333px;text-align:center;letter-spacing:0px;writing-mode:lr-tb;text-anchor:middle;fill:#0e1369;fill-opacity:1;stroke-width:0.243"
         x="75.71286"
         y="167.05074">Popa de espejo</tspan><tspan
         sodipodi:role="line"
         style="font-size:4.23333px;text-align:center;letter-spacing:0px;writing-mode:lr-tb;text-anchor:middle;fill:#0e1369;fill-opacity:1;stroke-width:0.243"
         x="75.71286"
         y="172.34239"
         id="tspan39"
         dy="-1.4185247">o estampa</tspan></text><text
       xml:space="preserve"
       style="font-size:4.23333px;font-family:Dubai;-inkscape-font-specification:Dubai;text-align:center;letter-spacing:0px;text-anchor:middle;fill:#636aea;fill-opacity:0.418919;fill-rule:nonzero;stroke:none;stroke-width:0.243;stroke-dasharray:none;stroke-dashoffset:0;stroke-opacity:1"
       x="31.517876"
       y="168.9873"
       id="text38-6"><tspan
         sodipodi:role="line"
         id="tspan38-0"
         style="font-style:normal;font-variant:normal;font-weight:normal;font-stretch:normal;font-size:4.23333px;font-family:Dubai;-inkscape-font-specification:Dubai;text-align:center;letter-spacing:0px;text-anchor:middle;fill:#0e1369;fill-opacity:1;stroke-width:0.243"
         x="31.517876"
         y="168.9873">Popa de crucero</tspan></text><g
       id="g13"
       transform="matrix(1.4103234,0,0,1.4103234,-115.98757,-34.466102)"><path
         id="path10"
         style="fill:#bfbfbf;fill-opacity:1;stroke:#000000;stroke-width:0.243417;stroke-dasharray:none;stroke-dashoffset:0;stroke-opacity:1"
         d="m 116.94944,114.86362 -24.997641,0.12305 c -1.048024,10.51414 6.087752,8.99073 6.79235,12.515 l 0.248047,8.14007 -2.305803,0.26148 -0.01602,0.64131 20.156907,-0.0408 m -16.67443,-9.9064 c 0.95754,0.51768 1.59215,1.9135 1.67225,2.95899 l 0.12867,2.18695 c -0.25962,2.23041 -0.9253,3.36012 -1.60765,3.73052 z"
         sodipodi:nodetypes="cccccccccccc" /><path
         id="path10-0"
         style="fill:#ed0000;fill-opacity:1;stroke:#000000;stroke-width:0.243417;stroke-dasharray:none;stroke-dashoffset:0;stroke-opacity:1"
         d="m 116.9137,121.19828 -24.307136,0.012 c 2.165731,4.20005 5.737716,3.78196 6.137586,6.29137 l 0.24805,8.14007 -2.30581,0.26148 -0.016,0.64131 20.15691,-0.0408 m -16.67445,-9.9064 c 0.95754,0.51768 1.59215,1.9135 1.67225,2.95899 l 0.12867,2.18695 c -0.25962,2.23041 -0.9253,3.36012 -1.60765,3.73052 z"
         sodipodi:nodetypes="cccccccccccc" /><path
         id="path10-0-8"
         style="fill:#3d3d3d;fill-opacity:1;stroke:#000000;stroke-width:0.243417;stroke-dasharray:none;stroke-dashoffset:0;stroke-opacity:1"
         d="m 116.91376,123.69291 -22.466158,-0.0581 c 1.93004,1.75154 3.997915,1.99282 4.296548,3.86691 l 0.24805,8.14007 -2.30581,0.26148 -0.016,0.64131 20.15691,-0.0408 m -16.67445,-9.9064 c 0.95754,0.51768 1.59215,1.9135 1.67225,2.95899 l 0.12867,2.18695 c -0.25962,2.23041 -0.9253,3.36012 -1.60765,3.73052 z"
         sodipodi:nodetypes="cccccccccccc" /><path
         style="fill:#626262;fill-opacity:1;stroke:#000000;stroke-width:0.243417;stroke-dasharray:none;stroke-dashoffset:0;stroke-opacity:1"
         d="m 97.875731,126.03644 0.09178,9.34877 c -0.05364,0.11644 -0.152749,0.17603 -0.29754,0.17852 l -2.844475,-0.0476 c -0.414962,-0.0127 -0.396469,-0.22928 -0.440359,-0.41656 l 0.05239,-5.01016 c 0.567371,-2.34259 2.511472,-2.8976 3.073205,-3.62915 l -0.0079,-0.73217 z"
         id="path11"
         sodipodi:nodetypes="ccccccccc" /></g></g><metadata
     id="metadata2"><rdf:RDF><cc:Work
         rdf:about=""><dc:date>07/09/2023</dc:date><dc:creator><cc:Agent><dc:title>Omar Villalpando</dc:title></cc:Agent></dc:creator><dc:rights><cc:Agent><dc:title>Conocimientos Marineros - Barbudo Duarte</dc:title></cc:Agent></dc:rights><dc:publisher><cc:Agent><dc:title>Omar Villalpando</dc:title></cc:Agent></dc:publisher><dc:identifier>Fig. 1.2.</dc:identifier><dc:source>Conocimientos Marineros - Barbudo Duarte</dc:source><dc:relation>Actualización</dc:relation><dc:language>Español</dc:language><dc:subject><rdf:Bag><rdf:li>Tipos de popas</rdf:li><rdf:li>popa</rdf:li><rdf:li>popas</rdf:li><rdf:li>Parte de un buque</rdf:li><rdf:li>Buque</rdf:li><rdf:li>Estructura de un buque</rdf:li><rdf:li>Conocimientos marineros</rdf:li><rdf:li>codaste</rdf:li><rdf:li>hélice</rdf:li><rdf:li>timón</rdf:li><rdf:li>pala</rdf:li><rdf:li>codaste</rdf:li><rdf:li>popa de crucero</rdf:li><rdf:li>popa de espejo o estampa</rdf:li><rdf:li>popa de estampa</rdf:li><rdf:li>popa de espejo</rdf:li><rdf:li>popa de remolcador</rdf:li><rdf:li>crucero</rdf:li><rdf:li>remolcador</rdf:li><rdf:li>barco</rdf:li><rdf:li>buque</rdf:li><rdf:li></rdf:li></rdf:Bag></dc:subject><dc:coverage>México</dc:coverage><dc:description>El tipo de quilla maciza (fig. 1.9) se monta en buques de pequeño tamaño de construcción de acero. La construcción de quilla plana es la más generalizada en la actualidad.</dc:description><dc:title>Tipos de popas</dc:title></cc:Work></rdf:RDF></metadata></svg>
